<svg width="500" height="547" viewBox="0 0 500 547" fill="none" xmlns="http://www.w3.org/2000/svg">
<circle cx="250" cy="250" r="243.667" stroke="white" stroke-width="6"/>
<path d="M498 250C498 386.967 386.967 498 250 498C113.033 498 2 386.967 2 250C2 113.033 113.033 2 250 2C386.967 2 498 113.033 498 250Z" stroke="black" stroke-width="4"/>
<path d="M488 250C488 381.444 381.444 488 250 488C118.556 488 12 381.444 12 250C12 118.556 118.556 12 250 12C381.444 12 488 118.556 488 250Z" stroke="black" stroke-width="4"/>
<path d="M295.556 305.224C257.531 243.002 312.838 90.3259 373.333 101.272C312.838 90.3259 217.778 151.396 183.209 230.902" stroke="#453100" stroke-width="5"/>
<ellipse cx="155.556" cy="287.94" rx="62.2225" ry="62.2225" fill="#FF5858"/>
<circle cx="297.284" cy="363.99" r="72.5929" fill="#FF5858"/>
<mask id="path-7-outside-1_106_172" maskUnits="userSpaceOnUse" x="63" y="508" width="373" height="37" fill="black">
<rect fill="white" x="63" y="508" width="373" height="37"/>
<path d="M82.8456 512.695V540H76.6347V512.695H82.8456ZM91.8456 512.695V517.594H67.7988V512.695H91.8456ZM105.359 519.047L97.6244 540H91.3431L102.242 512.695H106.46L105.359 519.047ZM112.718 540L104.89 519.023L103.788 512.695H108.054L118.976 540H112.718ZM112.46 529.852V534.375H97.1088V529.852H112.46ZM120.161 512.695H131.247C132.919 512.695 134.427 512.875 135.77 513.234C137.13 513.578 138.278 514.102 139.216 514.805C140.169 515.492 140.895 516.352 141.395 517.383C141.895 518.398 142.145 519.578 142.145 520.922C142.145 522.453 141.88 523.75 141.348 524.812C140.817 525.875 140.075 526.75 139.122 527.438C138.169 528.109 137.052 528.664 135.77 529.102L133.755 530.25H124.169L124.122 525.352H131.317C132.333 525.352 133.184 525.195 133.872 524.883C134.559 524.57 135.075 524.125 135.419 523.547C135.763 522.969 135.934 522.289 135.934 521.508C135.934 520.695 135.755 520 135.395 519.422C135.052 518.828 134.528 518.375 133.825 518.062C133.138 517.75 132.278 517.594 131.247 517.594H126.395V540H120.161V512.695ZM136.544 540L129.888 527.93L136.45 527.883L143.223 539.719V540H136.544ZM158.354 512.695V540H152.143V512.695H158.354ZM167.354 512.695V517.594H143.307V512.695H167.354ZM180.914 528.305H173.343L173.297 524.133H180.023C180.992 524.133 181.804 524.016 182.461 523.781C183.132 523.531 183.632 523.172 183.961 522.703C184.289 522.219 184.453 521.633 184.453 520.945C184.453 520.148 184.289 519.508 183.961 519.023C183.632 518.523 183.14 518.164 182.484 517.945C181.828 517.711 181.007 517.594 180.023 517.594H175.547V540H169.336V512.695H179.601C181.336 512.695 182.882 512.852 184.242 513.164C185.601 513.461 186.757 513.922 187.711 514.547C188.679 515.156 189.414 515.938 189.914 516.891C190.414 517.828 190.664 518.938 190.664 520.219C190.664 521.328 190.398 522.367 189.867 523.336C189.336 524.305 188.484 525.094 187.312 525.703C186.156 526.312 184.625 526.625 182.718 526.641L180.914 528.305ZM180.632 540H171.703L174.023 535.125H180.632C181.679 535.125 182.531 534.984 183.187 534.703C183.843 534.406 184.328 534.008 184.64 533.508C184.968 533.008 185.132 532.445 185.132 531.82C185.132 531.102 184.992 530.484 184.711 529.969C184.429 529.438 183.976 529.031 183.351 528.75C182.726 528.453 181.914 528.305 180.914 528.305H175.078L175.101 524.133H182.32L183.75 525.797C185.578 525.719 187.047 526 188.156 526.641C189.265 527.266 190.07 528.078 190.57 529.078C191.086 530.078 191.343 531.109 191.343 532.172C191.343 533.516 191.109 534.68 190.64 535.664C190.172 536.633 189.476 537.445 188.554 538.102C187.648 538.742 186.531 539.219 185.203 539.531C183.875 539.844 182.351 540 180.632 540ZM214.068 535.125V540H198.411V535.125H214.068ZM200.497 512.695V540H194.286V512.695H200.497ZM212.052 523.453V528.328H198.411V523.453H212.052ZM214.068 512.695V517.594H198.411V512.695H214.068ZM216.026 512.695H227.112C228.784 512.695 230.292 512.875 231.635 513.234C232.995 513.578 234.143 514.102 235.081 514.805C236.034 515.492 236.76 516.352 237.26 517.383C237.76 518.398 238.01 519.578 238.01 520.922C238.01 522.453 237.745 523.75 237.213 524.812C236.682 525.875 235.94 526.75 234.987 527.438C234.034 528.109 232.917 528.664 231.635 529.102L229.62 530.25H220.034L219.987 525.352H227.182C228.198 525.352 229.049 525.195 229.737 524.883C230.424 524.57 230.94 524.125 231.284 523.547C231.628 522.969 231.799 522.289 231.799 521.508C231.799 520.695 231.62 520 231.26 519.422C230.917 518.828 230.393 518.375 229.69 518.062C229.003 517.75 228.143 517.594 227.112 517.594H222.26V540H216.026V512.695ZM232.409 540L225.753 527.93L232.315 527.883L239.088 539.719V540H232.409ZM241.211 512.695H252.297C253.969 512.695 255.477 512.875 256.82 513.234C258.18 513.578 259.328 514.102 260.266 514.805C261.219 515.492 261.945 516.352 262.445 517.383C262.945 518.398 263.195 519.578 263.195 520.922C263.195 522.453 262.93 523.75 262.398 524.812C261.867 525.875 261.125 526.75 260.172 527.438C259.219 528.109 258.102 528.664 256.82 529.102L254.805 530.25H245.219L245.172 525.352H252.367C253.383 525.352 254.234 525.195 254.922 524.883C255.609 524.57 256.125 524.125 256.469 523.547C256.812 522.969 256.984 522.289 256.984 521.508C256.984 520.695 256.805 520 256.445 519.422C256.102 518.828 255.578 518.375 254.875 518.062C254.188 517.75 253.328 517.594 252.297 517.594H247.445V540H241.211V512.695ZM257.594 540L250.938 527.93L257.5 527.883L264.273 539.719V540H257.594ZM274.857 527.695L282.287 512.695H289.037L278.982 531H275.56L274.857 527.695ZM270.24 512.695L277.716 527.836L276.943 531H273.544L263.49 512.695H270.24ZM279.287 527.18V540H273.076V527.18H279.287ZM324.149 525.516V536.625C323.68 537.141 322.961 537.695 321.993 538.289C321.039 538.867 319.805 539.359 318.289 539.766C316.774 540.172 314.946 540.375 312.805 540.375C310.914 540.375 309.188 540.086 307.625 539.508C306.063 538.93 304.719 538.078 303.594 536.953C302.469 535.812 301.602 534.422 300.993 532.781C300.383 531.141 300.078 529.266 300.078 527.156V525.539C300.078 523.43 300.375 521.562 300.969 519.938C301.563 518.297 302.407 516.906 303.5 515.766C304.594 514.625 305.891 513.766 307.391 513.188C308.907 512.594 310.578 512.297 312.407 512.297C315 512.297 317.118 512.695 318.758 513.492C320.414 514.273 321.672 515.359 322.532 516.75C323.391 518.141 323.922 519.734 324.125 521.531H318.125C317.985 520.625 317.703 519.852 317.282 519.211C316.875 518.555 316.289 518.055 315.524 517.711C314.774 517.367 313.797 517.195 312.594 517.195C311.625 517.195 310.75 517.367 309.969 517.711C309.188 518.055 308.524 518.578 307.977 519.281C307.43 519.969 307.016 520.828 306.735 521.859C306.453 522.891 306.313 524.102 306.313 525.492V527.156C306.313 528.531 306.453 529.742 306.735 530.789C307.032 531.836 307.469 532.711 308.047 533.414C308.625 534.102 309.344 534.625 310.203 534.984C311.078 535.344 312.078 535.523 313.203 535.523C314.563 535.523 315.61 535.383 316.344 535.102C317.078 534.805 317.602 534.539 317.914 534.305V529.875H312.336V525.516H324.149ZM338.74 519.047L331.006 540H324.724L335.623 512.695H339.842L338.74 519.047ZM346.099 540L338.271 519.023L337.17 512.695H341.435L352.357 540H346.099ZM345.842 529.852V534.375H330.49V529.852H345.842ZM356.472 512.695H361.698L369.058 531.984L376.394 512.695H381.62L371.144 540H366.972L356.472 512.695ZM353.566 512.695H358.816L359.777 533.297V540H353.566V512.695ZM379.323 512.695H384.597V540H378.362V533.297L379.323 512.695ZM408.047 535.125V540H392.391V535.125H408.047ZM394.477 512.695V540H388.266V512.695H394.477ZM406.032 523.453V528.328H392.391V523.453H406.032ZM408.047 512.695V517.594H392.391V512.695H408.047ZM425.334 532.781C425.334 532.297 425.24 531.859 425.053 531.469C424.881 531.078 424.592 530.727 424.186 530.414C423.779 530.102 423.217 529.805 422.498 529.523C421.795 529.242 420.912 528.977 419.85 528.727C418.178 528.32 416.717 527.875 415.467 527.391C414.217 526.906 413.17 526.336 412.326 525.68C411.498 525.023 410.873 524.25 410.451 523.359C410.045 522.453 409.842 521.398 409.842 520.195C409.842 519.039 410.092 517.984 410.592 517.031C411.107 516.062 411.826 515.227 412.748 514.523C413.686 513.82 414.787 513.281 416.053 512.906C417.334 512.516 418.732 512.32 420.248 512.32C422.451 512.32 424.381 512.672 426.037 513.375C427.709 514.078 429.006 515.062 429.928 516.328C430.85 517.578 431.311 519.062 431.311 520.781H425.1C425.1 520.062 424.912 519.414 424.537 518.836C424.178 518.242 423.639 517.766 422.92 517.406C422.201 517.047 421.311 516.867 420.248 516.867C419.232 516.867 418.389 517.023 417.717 517.336C417.061 517.633 416.568 518.023 416.24 518.508C415.928 518.977 415.772 519.477 415.772 520.008C415.772 520.445 415.865 520.844 416.053 521.203C416.256 521.547 416.568 521.867 416.99 522.164C417.428 522.445 417.998 522.719 418.701 522.984C419.404 523.234 420.256 523.492 421.256 523.758C422.912 524.133 424.365 524.578 425.615 525.094C426.881 525.594 427.928 526.195 428.756 526.898C429.6 527.602 430.232 528.422 430.654 529.359C431.076 530.297 431.287 531.383 431.287 532.617C431.287 533.836 431.037 534.93 430.537 535.898C430.037 536.852 429.311 537.664 428.357 538.336C427.42 538.992 426.295 539.5 424.982 539.859C423.686 540.203 422.232 540.375 420.623 540.375C419.186 540.375 417.772 540.203 416.381 539.859C414.99 539.516 413.732 538.984 412.607 538.266C411.482 537.531 410.584 536.602 409.912 535.477C409.24 534.352 408.904 533.008 408.904 531.445H415.139C415.139 532.227 415.264 532.898 415.514 533.461C415.779 534.023 416.154 534.484 416.639 534.844C417.139 535.188 417.748 535.445 418.467 535.617C419.186 535.773 419.998 535.852 420.904 535.852C421.967 535.852 422.826 535.703 423.482 535.406C424.139 535.109 424.607 534.727 424.889 534.258C425.186 533.789 425.334 533.297 425.334 532.781Z"/>
</mask>
<path d="M82.8456 512.695V540H76.6347V512.695H82.8456ZM91.8456 512.695V517.594H67.7988V512.695H91.8456ZM105.359 519.047L97.6244 540H91.3431L102.242 512.695H106.46L105.359 519.047ZM112.718 540L104.89 519.023L103.788 512.695H108.054L118.976 540H112.718ZM112.46 529.852V534.375H97.1088V529.852H112.46ZM120.161 512.695H131.247C132.919 512.695 134.427 512.875 135.77 513.234C137.13 513.578 138.278 514.102 139.216 514.805C140.169 515.492 140.895 516.352 141.395 517.383C141.895 518.398 142.145 519.578 142.145 520.922C142.145 522.453 141.88 523.75 141.348 524.812C140.817 525.875 140.075 526.75 139.122 527.438C138.169 528.109 137.052 528.664 135.77 529.102L133.755 530.25H124.169L124.122 525.352H131.317C132.333 525.352 133.184 525.195 133.872 524.883C134.559 524.57 135.075 524.125 135.419 523.547C135.763 522.969 135.934 522.289 135.934 521.508C135.934 520.695 135.755 520 135.395 519.422C135.052 518.828 134.528 518.375 133.825 518.062C133.138 517.75 132.278 517.594 131.247 517.594H126.395V540H120.161V512.695ZM136.544 540L129.888 527.93L136.45 527.883L143.223 539.719V540H136.544ZM158.354 512.695V540H152.143V512.695H158.354ZM167.354 512.695V517.594H143.307V512.695H167.354ZM180.914 528.305H173.343L173.297 524.133H180.023C180.992 524.133 181.804 524.016 182.461 523.781C183.132 523.531 183.632 523.172 183.961 522.703C184.289 522.219 184.453 521.633 184.453 520.945C184.453 520.148 184.289 519.508 183.961 519.023C183.632 518.523 183.14 518.164 182.484 517.945C181.828 517.711 181.007 517.594 180.023 517.594H175.547V540H169.336V512.695H179.601C181.336 512.695 182.882 512.852 184.242 513.164C185.601 513.461 186.757 513.922 187.711 514.547C188.679 515.156 189.414 515.938 189.914 516.891C190.414 517.828 190.664 518.938 190.664 520.219C190.664 521.328 190.398 522.367 189.867 523.336C189.336 524.305 188.484 525.094 187.312 525.703C186.156 526.312 184.625 526.625 182.718 526.641L180.914 528.305ZM180.632 540H171.703L174.023 535.125H180.632C181.679 535.125 182.531 534.984 183.187 534.703C183.843 534.406 184.328 534.008 184.64 533.508C184.968 533.008 185.132 532.445 185.132 531.82C185.132 531.102 184.992 530.484 184.711 529.969C184.429 529.438 183.976 529.031 183.351 528.75C182.726 528.453 181.914 528.305 180.914 528.305H175.078L175.101 524.133H182.32L183.75 525.797C185.578 525.719 187.047 526 188.156 526.641C189.265 527.266 190.07 528.078 190.57 529.078C191.086 530.078 191.343 531.109 191.343 532.172C191.343 533.516 191.109 534.68 190.64 535.664C190.172 536.633 189.476 537.445 188.554 538.102C187.648 538.742 186.531 539.219 185.203 539.531C183.875 539.844 182.351 540 180.632 540ZM214.068 535.125V540H198.411V535.125H214.068ZM200.497 512.695V540H194.286V512.695H200.497ZM212.052 523.453V528.328H198.411V523.453H212.052ZM214.068 512.695V517.594H198.411V512.695H214.068ZM216.026 512.695H227.112C228.784 512.695 230.292 512.875 231.635 513.234C232.995 513.578 234.143 514.102 235.081 514.805C236.034 515.492 236.76 516.352 237.26 517.383C237.76 518.398 238.01 519.578 238.01 520.922C238.01 522.453 237.745 523.75 237.213 524.812C236.682 525.875 235.94 526.75 234.987 527.438C234.034 528.109 232.917 528.664 231.635 529.102L229.62 530.25H220.034L219.987 525.352H227.182C228.198 525.352 229.049 525.195 229.737 524.883C230.424 524.57 230.94 524.125 231.284 523.547C231.628 522.969 231.799 522.289 231.799 521.508C231.799 520.695 231.62 520 231.26 519.422C230.917 518.828 230.393 518.375 229.69 518.062C229.003 517.75 228.143 517.594 227.112 517.594H222.26V540H216.026V512.695ZM232.409 540L225.753 527.93L232.315 527.883L239.088 539.719V540H232.409ZM241.211 512.695H252.297C253.969 512.695 255.477 512.875 256.82 513.234C258.18 513.578 259.328 514.102 260.266 514.805C261.219 515.492 261.945 516.352 262.445 517.383C262.945 518.398 263.195 519.578 263.195 520.922C263.195 522.453 262.93 523.75 262.398 524.812C261.867 525.875 261.125 526.75 260.172 527.438C259.219 528.109 258.102 528.664 256.82 529.102L254.805 530.25H245.219L245.172 525.352H252.367C253.383 525.352 254.234 525.195 254.922 524.883C255.609 524.57 256.125 524.125 256.469 523.547C256.812 522.969 256.984 522.289 256.984 521.508C256.984 520.695 256.805 520 256.445 519.422C256.102 518.828 255.578 518.375 254.875 518.062C254.188 517.75 253.328 517.594 252.297 517.594H247.445V540H241.211V512.695ZM257.594 540L250.938 527.93L257.5 527.883L264.273 539.719V540H257.594ZM274.857 527.695L282.287 512.695H289.037L278.982 531H275.56L274.857 527.695ZM270.24 512.695L277.716 527.836L276.943 531H273.544L263.49 512.695H270.24ZM279.287 527.18V540H273.076V527.18H279.287ZM324.149 525.516V536.625C323.68 537.141 322.961 537.695 321.993 538.289C321.039 538.867 319.805 539.359 318.289 539.766C316.774 540.172 314.946 540.375 312.805 540.375C310.914 540.375 309.188 540.086 307.625 539.508C306.063 538.93 304.719 538.078 303.594 536.953C302.469 535.812 301.602 534.422 300.993 532.781C300.383 531.141 300.078 529.266 300.078 527.156V525.539C300.078 523.43 300.375 521.562 300.969 519.938C301.563 518.297 302.407 516.906 303.5 515.766C304.594 514.625 305.891 513.766 307.391 513.188C308.907 512.594 310.578 512.297 312.407 512.297C315 512.297 317.118 512.695 318.758 513.492C320.414 514.273 321.672 515.359 322.532 516.75C323.391 518.141 323.922 519.734 324.125 521.531H318.125C317.985 520.625 317.703 519.852 317.282 519.211C316.875 518.555 316.289 518.055 315.524 517.711C314.774 517.367 313.797 517.195 312.594 517.195C311.625 517.195 310.75 517.367 309.969 517.711C309.188 518.055 308.524 518.578 307.977 519.281C307.43 519.969 307.016 520.828 306.735 521.859C306.453 522.891 306.313 524.102 306.313 525.492V527.156C306.313 528.531 306.453 529.742 306.735 530.789C307.032 531.836 307.469 532.711 308.047 533.414C308.625 534.102 309.344 534.625 310.203 534.984C311.078 535.344 312.078 535.523 313.203 535.523C314.563 535.523 315.61 535.383 316.344 535.102C317.078 534.805 317.602 534.539 317.914 534.305V529.875H312.336V525.516H324.149ZM338.74 519.047L331.006 540H324.724L335.623 512.695H339.842L338.74 519.047ZM346.099 540L338.271 519.023L337.17 512.695H341.435L352.357 540H346.099ZM345.842 529.852V534.375H330.49V529.852H345.842ZM356.472 512.695H361.698L369.058 531.984L376.394 512.695H381.62L371.144 540H366.972L356.472 512.695ZM353.566 512.695H358.816L359.777 533.297V540H353.566V512.695ZM379.323 512.695H384.597V540H378.362V533.297L379.323 512.695ZM408.047 535.125V540H392.391V535.125H408.047ZM394.477 512.695V540H388.266V512.695H394.477ZM406.032 523.453V528.328H392.391V523.453H406.032ZM408.047 512.695V517.594H392.391V512.695H408.047ZM425.334 532.781C425.334 532.297 425.24 531.859 425.053 531.469C424.881 531.078 424.592 530.727 424.186 530.414C423.779 530.102 423.217 529.805 422.498 529.523C421.795 529.242 420.912 528.977 419.85 528.727C418.178 528.32 416.717 527.875 415.467 527.391C414.217 526.906 413.17 526.336 412.326 525.68C411.498 525.023 410.873 524.25 410.451 523.359C410.045 522.453 409.842 521.398 409.842 520.195C409.842 519.039 410.092 517.984 410.592 517.031C411.107 516.062 411.826 515.227 412.748 514.523C413.686 513.82 414.787 513.281 416.053 512.906C417.334 512.516 418.732 512.32 420.248 512.32C422.451 512.32 424.381 512.672 426.037 513.375C427.709 514.078 429.006 515.062 429.928 516.328C430.85 517.578 431.311 519.062 431.311 520.781H425.1C425.1 520.062 424.912 519.414 424.537 518.836C424.178 518.242 423.639 517.766 422.92 517.406C422.201 517.047 421.311 516.867 420.248 516.867C419.232 516.867 418.389 517.023 417.717 517.336C417.061 517.633 416.568 518.023 416.24 518.508C415.928 518.977 415.772 519.477 415.772 520.008C415.772 520.445 415.865 520.844 416.053 521.203C416.256 521.547 416.568 521.867 416.99 522.164C417.428 522.445 417.998 522.719 418.701 522.984C419.404 523.234 420.256 523.492 421.256 523.758C422.912 524.133 424.365 524.578 425.615 525.094C426.881 525.594 427.928 526.195 428.756 526.898C429.6 527.602 430.232 528.422 430.654 529.359C431.076 530.297 431.287 531.383 431.287 532.617C431.287 533.836 431.037 534.93 430.537 535.898C430.037 536.852 429.311 537.664 428.357 538.336C427.42 538.992 426.295 539.5 424.982 539.859C423.686 540.203 422.232 540.375 420.623 540.375C419.186 540.375 417.772 540.203 416.381 539.859C414.99 539.516 413.732 538.984 412.607 538.266C411.482 537.531 410.584 536.602 409.912 535.477C409.24 534.352 408.904 533.008 408.904 531.445H415.139C415.139 532.227 415.264 532.898 415.514 533.461C415.779 534.023 416.154 534.484 416.639 534.844C417.139 535.188 417.748 535.445 418.467 535.617C419.186 535.773 419.998 535.852 420.904 535.852C421.967 535.852 422.826 535.703 423.482 535.406C424.139 535.109 424.607 534.727 424.889 534.258C425.186 533.789 425.334 533.297 425.334 532.781Z" fill="white"/>
<path d="M82.8456 512.695H86.8456V508.695H82.8456V512.695ZM82.8456 540V544H86.8456V540H82.8456ZM76.6347 540H72.6347V544H76.6347V540ZM76.6347 512.695V508.695H72.6347V512.695H76.6347ZM91.8456 512.695H95.8456V508.695H91.8456V512.695ZM91.8456 517.594V521.594H95.8456V517.594H91.8456ZM67.7988 517.594H63.7988V521.594H67.7988V517.594ZM67.7988 512.695V508.695H63.7988V512.695H67.7988ZM78.8456 512.695V540H86.8456V512.695H78.8456ZM82.8456 536H76.6347V544H82.8456V536ZM80.6347 540V512.695H72.6347V540H80.6347ZM76.6347 516.695H82.8456V508.695H76.6347V516.695ZM87.8456 512.695V517.594H95.8456V512.695H87.8456ZM91.8456 513.594H67.7988V521.594H91.8456V513.594ZM71.7988 517.594V512.695H63.7988V517.594H71.7988ZM67.7988 516.695H91.8456V508.695H67.7988V516.695ZM105.359 519.047L109.111 520.432L109.238 520.09L109.3 519.73L105.359 519.047ZM97.6244 540V544H100.412L101.377 541.385L97.6244 540ZM91.3431 540L87.6281 538.517L85.4397 544H91.3431V540ZM102.242 512.695V508.695H99.5313L98.5266 511.212L102.242 512.695ZM106.46 512.695L110.401 513.379L111.214 508.695H106.46V512.695ZM112.718 540L108.971 541.399L109.941 544H112.718V540ZM104.89 519.023L100.949 519.709L101.013 520.075L101.142 520.422L104.89 519.023ZM103.788 512.695V508.695H99.032L99.8477 513.381L103.788 512.695ZM108.054 512.695L111.768 511.21L110.762 508.695H108.054V512.695ZM118.976 540V544H124.884L122.69 538.514L118.976 540ZM112.46 529.852H116.46V525.852H112.46V529.852ZM112.46 534.375V538.375H116.46V534.375H112.46ZM97.1088 534.375H93.1088V538.375H97.1088V534.375ZM97.1088 529.852V525.852H93.1088V529.852H97.1088ZM101.606 517.662L93.8719 538.615L101.377 541.385L109.111 520.432L101.606 517.662ZM97.6244 536H91.3431V544H97.6244V536ZM95.0581 541.483L105.957 514.178L98.5266 511.212L87.6281 538.517L95.0581 541.483ZM102.242 516.695H106.46V508.695H102.242V516.695ZM102.519 512.012L101.418 518.363L109.3 519.73L110.401 513.379L102.519 512.012ZM116.466 538.601L108.638 517.625L101.142 520.422L108.971 541.399L116.466 538.601ZM108.831 518.337L107.729 512.009L99.8477 513.381L100.949 519.709L108.831 518.337ZM103.788 516.695H108.054V508.695H103.788V516.695ZM104.34 514.181L115.262 541.486L122.69 538.514L111.768 511.21L104.34 514.181ZM118.976 536H112.718V544H118.976V536ZM108.46 529.852V534.375H116.46V529.852H108.46ZM112.46 530.375H97.1088V538.375H112.46V530.375ZM101.109 534.375V529.852H93.1088V534.375H101.109ZM97.1088 533.852H112.46V525.852H97.1088V533.852ZM120.161 512.695V508.695H116.161V512.695H120.161ZM135.77 513.234L134.737 517.099L134.763 517.106L134.79 517.112L135.77 513.234ZM139.216 514.805L136.816 518.005L136.845 518.027L136.876 518.049L139.216 514.805ZM141.395 517.383L137.796 519.128L137.801 519.139L137.807 519.15L141.395 517.383ZM139.122 527.438L141.427 530.707L141.444 530.694L141.462 530.682L139.122 527.438ZM135.77 529.102L134.478 525.316L134.119 525.439L133.79 525.626L135.77 529.102ZM133.755 530.25V534.25H134.814L135.735 533.725L133.755 530.25ZM124.169 530.25L120.169 530.288L120.207 534.25H124.169V530.25ZM124.122 525.352V521.352H120.083L120.122 525.39L124.122 525.352ZM135.395 519.422L131.934 521.426L131.965 521.48L131.998 521.534L135.395 519.422ZM133.825 518.062L132.17 521.704L132.185 521.711L132.2 521.718L133.825 518.062ZM126.395 517.594V513.594H122.395V517.594H126.395ZM126.395 540V544H130.395V540H126.395ZM120.161 540H116.161V544H120.161V540ZM136.544 540L133.041 541.932L134.182 544H136.544V540ZM129.888 527.93L129.859 523.93L123.14 523.978L126.385 529.861L129.888 527.93ZM136.45 527.883L139.922 525.896L138.76 523.866L136.421 523.883L136.45 527.883ZM143.223 539.719H147.223V538.655L146.695 537.732L143.223 539.719ZM143.223 540V544H147.223V540H143.223ZM120.161 516.695H131.247V508.695H120.161V516.695ZM131.247 516.695C132.638 516.695 133.79 516.845 134.737 517.099L136.804 509.37C135.063 508.905 133.2 508.695 131.247 508.695V516.695ZM134.79 517.112C135.735 517.351 136.376 517.675 136.816 518.005L141.616 511.605C140.18 510.528 138.525 509.805 136.751 509.356L134.79 517.112ZM136.876 518.049C137.306 518.359 137.593 518.709 137.796 519.128L144.995 515.638C144.198 513.995 143.032 512.625 141.556 511.561L136.876 518.049ZM137.807 519.15C137.99 519.522 138.145 520.077 138.145 520.922H146.145C146.145 519.079 145.801 517.275 144.984 515.616L137.807 519.15ZM138.145 520.922C138.145 522.006 137.956 522.653 137.771 523.024L144.926 526.601C145.804 524.847 146.145 522.901 146.145 520.922H138.145ZM137.771 523.024C137.525 523.515 137.205 523.888 136.782 524.193L141.462 530.682C142.945 529.612 144.109 528.235 144.926 526.601L137.771 523.024ZM136.817 524.168C136.221 524.589 135.455 524.982 134.478 525.316L137.063 532.887C138.648 532.346 140.117 531.63 141.427 530.707L136.817 524.168ZM133.79 525.626L131.774 526.775L135.735 533.725L137.751 532.577L133.79 525.626ZM133.755 526.25H124.169V534.25H133.755V526.25ZM128.169 530.212L128.122 525.313L120.122 525.39L120.169 530.288L128.169 530.212ZM124.122 529.352H131.317V521.352H124.122V529.352ZM131.317 529.352C132.717 529.352 134.173 529.14 135.527 528.524L132.217 521.241C132.196 521.251 131.948 521.352 131.317 521.352V529.352ZM135.527 528.524C136.863 527.917 138.045 526.956 138.857 525.591L131.981 521.503C132.032 521.417 132.096 521.342 132.16 521.287C132.22 521.235 132.25 521.226 132.217 521.241L135.527 528.524ZM138.857 525.591C139.624 524.301 139.934 522.891 139.934 521.508H131.934C131.934 521.605 131.924 521.638 131.928 521.623C131.929 521.616 131.934 521.6 131.943 521.577C131.953 521.554 131.965 521.529 131.981 521.503L138.857 525.591ZM139.934 521.508C139.934 520.095 139.616 518.636 138.792 517.31L131.998 521.534C131.977 521.499 131.96 521.466 131.948 521.437C131.935 521.408 131.929 521.387 131.927 521.378C131.922 521.359 131.934 521.396 131.934 521.508H139.934ZM138.857 517.418C138.04 516.006 136.826 515.019 135.45 514.407L132.2 521.718C132.231 521.731 132.195 521.72 132.127 521.661C132.056 521.599 131.986 521.517 131.934 521.426L138.857 517.418ZM135.48 514.421C134.12 513.803 132.652 513.594 131.247 513.594V521.594C131.904 521.594 132.155 521.697 132.17 521.704L135.48 514.421ZM131.247 513.594H126.395V521.594H131.247V513.594ZM122.395 517.594V540H130.395V517.594H122.395ZM126.395 536H120.161V544H126.395V536ZM124.161 540V512.695H116.161V540H124.161ZM140.046 538.068L133.39 525.998L126.385 529.861L133.041 541.932L140.046 538.068ZM129.916 531.93L136.479 531.883L136.421 523.883L129.859 523.93L129.916 531.93ZM132.978 529.87L139.752 541.706L146.695 537.732L139.922 525.896L132.978 529.87ZM139.223 539.719V540H147.223V539.719H139.223ZM143.223 536H136.544V544H143.223V536ZM158.354 512.695H162.354V508.695H158.354V512.695ZM158.354 540V544H162.354V540H158.354ZM152.143 540H148.143V544H152.143V540ZM152.143 512.695V508.695H148.143V512.695H152.143ZM167.354 512.695H171.354V508.695H167.354V512.695ZM167.354 517.594V521.594H171.354V517.594H167.354ZM143.307 517.594H139.307V521.594H143.307V517.594ZM143.307 512.695V508.695H139.307V512.695H143.307ZM154.354 512.695V540H162.354V512.695H154.354ZM158.354 536H152.143V544H158.354V536ZM156.143 540V512.695H148.143V540H156.143ZM152.143 516.695H158.354V508.695H152.143V516.695ZM163.354 512.695V517.594H171.354V512.695H163.354ZM167.354 513.594H143.307V521.594H167.354V513.594ZM147.307 517.594V512.695H139.307V517.594H147.307ZM143.307 516.695H167.354V508.695H143.307V516.695ZM180.914 528.305V532.305H182.476L183.625 531.245L180.914 528.305ZM173.343 528.305L169.344 528.35L169.388 532.305H173.343V528.305ZM173.297 524.133V520.133H169.251L169.297 524.178L173.297 524.133ZM182.461 523.781L183.806 527.548L183.831 527.539L183.856 527.53L182.461 523.781ZM183.961 522.703L187.238 524.997L187.255 524.972L187.272 524.947L183.961 522.703ZM183.961 519.023L180.616 521.218L180.633 521.243L180.649 521.267L183.961 519.023ZM182.484 517.945L181.139 521.712L181.179 521.727L181.219 521.74L182.484 517.945ZM175.547 517.594V513.594H171.547V517.594H175.547ZM175.547 540V544H179.547V540H175.547ZM169.336 540H165.336V544H169.336V540ZM169.336 512.695V508.695H165.336V512.695H169.336ZM184.242 513.164L183.346 517.062L183.367 517.067L183.388 517.072L184.242 513.164ZM187.711 514.547L185.517 517.892L185.549 517.913L185.581 517.933L187.711 514.547ZM189.914 516.891L186.372 518.749L186.378 518.761L186.384 518.773L189.914 516.891ZM187.312 525.703L185.467 522.154L185.457 522.159L185.447 522.164L187.312 525.703ZM182.718 526.641L182.686 522.641L181.142 522.653L180.007 523.7L182.718 526.641ZM171.703 540L168.091 538.281L165.369 544H171.703V540ZM174.023 535.125V531.125H171.497L170.411 533.406L174.023 535.125ZM183.187 534.703L184.763 538.38L184.8 538.364L184.836 538.348L183.187 534.703ZM184.64 533.508L181.296 531.313L181.272 531.35L181.248 531.388L184.64 533.508ZM184.711 529.969L181.175 531.84L181.187 531.862L181.199 531.884L184.711 529.969ZM183.351 528.75L181.635 532.363L181.672 532.381L181.71 532.398L183.351 528.75ZM175.078 528.305L171.078 528.282L171.055 532.305H175.078V528.305ZM175.101 524.133V520.133H171.124L171.101 524.11L175.101 524.133ZM182.32 524.133L185.354 521.526L184.157 520.133H182.32V524.133ZM183.75 525.797L180.716 528.404L181.981 529.876L183.92 529.793L183.75 525.797ZM188.156 526.641L186.156 530.105L186.174 530.115L186.193 530.126L188.156 526.641ZM190.57 529.078L186.992 530.867L187.003 530.889L187.015 530.911L190.57 529.078ZM190.64 535.664L194.241 537.406L194.246 537.395L194.252 537.384L190.64 535.664ZM188.554 538.102L190.863 541.368L190.874 541.36L188.554 538.102ZM180.914 524.305H173.343V532.305H180.914V524.305ZM177.343 528.26L177.296 524.088L169.297 524.178L169.344 528.35L177.343 528.26ZM173.297 528.133H180.023V520.133H173.297V528.133ZM180.023 528.133C181.285 528.133 182.586 527.984 183.806 527.548L181.115 520.014C181.023 520.047 180.699 520.133 180.023 520.133V528.133ZM183.856 527.53C185.095 527.069 186.339 526.281 187.238 524.997L180.684 520.409C180.797 520.248 180.917 520.139 181.005 520.076C181.087 520.017 181.121 520.012 181.066 520.032L183.856 527.53ZM187.272 524.947C188.123 523.691 188.453 522.289 188.453 520.945H180.453C180.453 520.971 180.45 520.922 180.478 520.822C180.507 520.717 180.562 520.588 180.649 520.46L187.272 524.947ZM188.453 520.945C188.453 519.631 188.185 518.127 187.272 516.78L180.649 521.267C180.523 521.081 180.472 520.928 180.455 520.86C180.439 520.797 180.453 520.816 180.453 520.945H188.453ZM187.305 516.829C186.408 515.462 185.119 514.607 183.749 514.151L181.219 521.74C181.208 521.736 181.115 521.703 180.987 521.609C180.852 521.511 180.721 521.377 180.616 521.218L187.305 516.829ZM183.829 514.178C182.603 513.74 181.292 513.594 180.023 513.594V521.594C180.723 521.594 181.052 521.681 181.139 521.712L183.829 514.178ZM180.023 513.594H175.547V521.594H180.023V513.594ZM171.547 517.594V540H179.547V517.594H171.547ZM175.547 536H169.336V544H175.547V536ZM173.336 540V512.695H165.336V540H173.336ZM169.336 516.695H179.601V508.695H169.336V516.695ZM179.601 516.695C181.104 516.695 182.341 516.831 183.346 517.062L185.138 509.266C183.424 508.872 181.568 508.695 179.601 508.695V516.695ZM183.388 517.072C184.373 517.287 185.052 517.587 185.517 517.892L189.904 511.202C188.463 510.257 186.83 509.635 185.095 509.256L183.388 517.072ZM185.581 517.933C185.992 518.191 186.22 518.46 186.372 518.749L193.456 515.032C192.607 513.415 191.367 512.121 189.84 511.161L185.581 517.933ZM186.384 518.773C186.518 519.023 186.664 519.46 186.664 520.219H194.664C194.664 518.415 194.31 516.633 193.443 515.008L186.384 518.773ZM186.664 520.219C186.664 520.659 186.566 521.036 186.36 521.413L193.374 525.259C194.23 523.698 194.664 521.998 194.664 520.219H186.664ZM186.36 521.413C186.278 521.561 186.076 521.838 185.467 522.154L189.158 529.252C190.893 528.35 192.393 527.049 193.374 525.259L186.36 521.413ZM185.447 522.164C185.055 522.371 184.225 522.628 182.686 522.641L182.751 530.64C185.025 530.622 187.256 530.254 189.177 529.242L185.447 522.164ZM180.007 523.7L178.202 525.364L183.625 531.245L185.43 529.581L180.007 523.7ZM180.632 536H171.703V544H180.632V536ZM175.315 541.719L177.635 536.844L170.411 533.406L168.091 538.281L175.315 541.719ZM174.023 539.125H180.632V531.125H174.023V539.125ZM180.632 539.125C181.99 539.125 183.433 538.95 184.763 538.38L181.612 531.027C181.633 531.017 181.576 531.045 181.405 531.073C181.234 531.101 180.982 531.125 180.632 531.125V539.125ZM184.836 538.348C186.05 537.798 187.217 536.932 188.032 535.628L181.248 531.388C181.336 531.248 181.431 531.151 181.502 531.092C181.568 531.038 181.592 531.034 181.539 531.059L184.836 538.348ZM187.985 535.702C188.76 534.52 189.132 533.188 189.132 531.82H181.132C181.132 531.779 181.139 531.697 181.169 531.591C181.201 531.483 181.247 531.388 181.296 531.313L187.985 535.702ZM189.132 531.82C189.132 530.581 188.888 529.274 188.222 528.053L181.199 531.884C181.176 531.841 181.159 531.802 181.147 531.771C181.135 531.739 181.129 531.717 181.127 531.707C181.123 531.688 181.132 531.72 181.132 531.82H189.132ZM188.246 528.097C187.491 526.672 186.31 525.695 184.993 525.102L181.71 532.398C181.694 532.39 181.605 532.348 181.49 532.244C181.369 532.136 181.258 531.997 181.175 531.84L188.246 528.097ZM185.067 525.137C183.722 524.498 182.263 524.305 180.914 524.305V532.305C181.221 532.305 181.428 532.328 181.554 532.351C181.68 532.374 181.694 532.391 181.635 532.363L185.067 525.137ZM180.914 524.305H175.078V532.305H180.914V524.305ZM179.078 528.327L179.101 524.155L171.101 524.11L171.078 528.282L179.078 528.327ZM175.101 528.133H182.32V520.133H175.101V528.133ZM179.286 526.739L180.716 528.404L186.784 523.19L185.354 521.526L179.286 526.739ZM183.92 529.793C185.299 529.734 185.93 529.974 186.156 530.105L190.156 523.177C188.164 522.026 185.857 521.703 183.579 521.801L183.92 529.793ZM186.193 530.126C186.706 530.415 186.897 530.677 186.992 530.867L194.148 527.289C193.243 525.48 191.824 524.116 190.119 523.156L186.193 530.126ZM187.015 530.911C187.256 531.379 187.343 531.785 187.343 532.172H195.343C195.343 530.434 194.915 528.777 194.125 527.245L187.015 530.911ZM187.343 532.172C187.343 533.056 187.189 533.607 187.029 533.944L194.252 537.384C195.029 535.752 195.343 533.975 195.343 532.172H187.343ZM187.04 533.922C186.879 534.254 186.638 534.556 186.235 534.843L190.874 541.36C192.314 540.335 193.464 539.012 194.241 537.406L187.04 533.922ZM186.245 534.835C185.843 535.12 185.226 535.417 184.287 535.638L186.119 543.425C187.836 543.021 189.453 542.365 190.863 541.368L186.245 534.835ZM184.287 535.638C183.324 535.864 182.119 536 180.632 536V544C182.584 544 184.425 543.824 186.119 543.425L184.287 535.638ZM214.068 535.125H218.068V531.125H214.068V535.125ZM214.068 540V544H218.068V540H214.068ZM198.411 540H194.411V544H198.411V540ZM198.411 535.125V531.125H194.411V535.125H198.411ZM200.497 512.695H204.497V508.695H200.497V512.695ZM200.497 540V544H204.497V540H200.497ZM194.286 540H190.286V544H194.286V540ZM194.286 512.695V508.695H190.286V512.695H194.286ZM212.052 523.453H216.052V519.453H212.052V523.453ZM212.052 528.328V532.328H216.052V528.328H212.052ZM198.411 528.328H194.411V532.328H198.411V528.328ZM198.411 523.453V519.453H194.411V523.453H198.411ZM214.068 512.695H218.068V508.695H214.068V512.695ZM214.068 517.594V521.594H218.068V517.594H214.068ZM198.411 517.594H194.411V521.594H198.411V517.594ZM198.411 512.695V508.695H194.411V512.695H198.411ZM210.068 535.125V540H218.068V535.125H210.068ZM214.068 536H198.411V544H214.068V536ZM202.411 540V535.125H194.411V540H202.411ZM198.411 539.125H214.068V531.125H198.411V539.125ZM196.497 512.695V540H204.497V512.695H196.497ZM200.497 536H194.286V544H200.497V536ZM198.286 540V512.695H190.286V540H198.286ZM194.286 516.695H200.497V508.695H194.286V516.695ZM208.052 523.453V528.328H216.052V523.453H208.052ZM212.052 524.328H198.411V532.328H212.052V524.328ZM202.411 528.328V523.453H194.411V528.328H202.411ZM198.411 527.453H212.052V519.453H198.411V527.453ZM210.068 512.695V517.594H218.068V512.695H210.068ZM214.068 513.594H198.411V521.594H214.068V513.594ZM202.411 517.594V512.695H194.411V517.594H202.411ZM198.411 516.695H214.068V508.695H198.411V516.695ZM216.026 512.695V508.695H212.026V512.695H216.026ZM231.635 513.234L230.602 517.099L230.628 517.106L230.655 517.112L231.635 513.234ZM235.081 514.805L232.681 518.005L232.71 518.027L232.741 518.049L235.081 514.805ZM237.26 517.383L233.661 519.128L233.666 519.139L233.672 519.15L237.26 517.383ZM234.987 527.438L237.292 530.707L237.309 530.694L237.327 530.682L234.987 527.438ZM231.635 529.102L230.343 525.316L229.984 525.439L229.655 525.626L231.635 529.102ZM229.62 530.25V534.25H230.679L231.6 533.725L229.62 530.25ZM220.034 530.25L216.034 530.288L216.072 534.25H220.034V530.25ZM219.987 525.352V521.352H215.948L215.987 525.39L219.987 525.352ZM231.26 519.422L227.799 521.426L227.83 521.48L227.863 521.534L231.26 519.422ZM229.69 518.062L228.035 521.704L228.05 521.711L228.065 521.718L229.69 518.062ZM222.26 517.594V513.594H218.26V517.594H222.26ZM222.26 540V544H226.26V540H222.26ZM216.026 540H212.026V544H216.026V540ZM232.409 540L228.906 541.932L230.047 544H232.409V540ZM225.753 527.93L225.724 523.93L219.005 523.978L222.25 529.861L225.753 527.93ZM232.315 527.883L235.787 525.896L234.625 523.866L232.286 523.883L232.315 527.883ZM239.088 539.719H243.088V538.655L242.56 537.732L239.088 539.719ZM239.088 540V544H243.088V540H239.088ZM216.026 516.695H227.112V508.695H216.026V516.695ZM227.112 516.695C228.503 516.695 229.655 516.845 230.602 517.099L232.669 509.37C230.928 508.905 229.065 508.695 227.112 508.695V516.695ZM230.655 517.112C231.6 517.351 232.241 517.675 232.681 518.005L237.481 511.605C236.045 510.528 234.39 509.805 232.616 509.356L230.655 517.112ZM232.741 518.049C233.171 518.359 233.458 518.709 233.661 519.128L240.86 515.638C240.063 513.995 238.897 512.625 237.421 511.561L232.741 518.049ZM233.672 519.15C233.855 519.522 234.01 520.077 234.01 520.922H242.01C242.01 519.079 241.666 517.275 240.849 515.616L233.672 519.15ZM234.01 520.922C234.01 522.006 233.821 522.653 233.636 523.024L240.791 526.601C241.669 524.847 242.01 522.901 242.01 520.922H234.01ZM233.636 523.024C233.39 523.515 233.07 523.888 232.647 524.193L237.327 530.682C238.81 529.612 239.974 528.235 240.791 526.601L233.636 523.024ZM232.682 524.168C232.086 524.589 231.32 524.982 230.343 525.316L232.928 532.887C234.513 532.346 235.982 531.63 237.292 530.707L232.682 524.168ZM229.655 525.626L227.639 526.775L231.6 533.725L233.616 532.577L229.655 525.626ZM229.62 526.25H220.034V534.25H229.62V526.25ZM224.034 530.212L223.987 525.313L215.987 525.39L216.034 530.288L224.034 530.212ZM219.987 529.352H227.182V521.352H219.987V529.352ZM227.182 529.352C228.582 529.352 230.038 529.14 231.392 528.524L228.082 521.241C228.061 521.251 227.813 521.352 227.182 521.352V529.352ZM231.392 528.524C232.728 527.917 233.91 526.956 234.722 525.591L227.846 521.503C227.897 521.417 227.961 521.342 228.025 521.287C228.085 521.235 228.115 521.226 228.082 521.241L231.392 528.524ZM234.722 525.591C235.489 524.301 235.799 522.891 235.799 521.508H227.799C227.799 521.605 227.789 521.638 227.793 521.623C227.794 521.616 227.799 521.6 227.808 521.577C227.818 521.554 227.83 521.529 227.846 521.503L234.722 525.591ZM235.799 521.508C235.799 520.095 235.481 518.636 234.657 517.31L227.863 521.534C227.842 521.499 227.825 521.466 227.813 521.437C227.8 521.408 227.794 521.387 227.792 521.378C227.787 521.359 227.799 521.396 227.799 521.508H235.799ZM234.722 517.418C233.905 516.006 232.691 515.019 231.315 514.407L228.065 521.718C228.096 521.731 228.06 521.72 227.992 521.661C227.921 521.599 227.851 521.517 227.799 521.426L234.722 517.418ZM231.345 514.421C229.985 513.803 228.517 513.594 227.112 513.594V521.594C227.769 521.594 228.02 521.697 228.035 521.704L231.345 514.421ZM227.112 513.594H222.26V521.594H227.112V513.594ZM218.26 517.594V540H226.26V517.594H218.26ZM222.26 536H216.026V544H222.26V536ZM220.026 540V512.695H212.026V540H220.026ZM235.911 538.068L229.255 525.998L222.25 529.861L228.906 541.932L235.911 538.068ZM225.781 531.93L232.344 531.883L232.286 523.883L225.724 523.93L225.781 531.93ZM228.843 529.87L235.617 541.706L242.56 537.732L235.787 525.896L228.843 529.87ZM235.088 539.719V540H243.088V539.719H235.088ZM239.088 536H232.409V544H239.088V536ZM241.211 512.695V508.695H237.211V512.695H241.211ZM256.82 513.234L255.787 517.099L255.813 517.106L255.84 517.112L256.82 513.234ZM260.266 514.805L257.866 518.005L257.895 518.027L257.926 518.049L260.266 514.805ZM262.445 517.383L258.846 519.128L258.851 519.139L258.857 519.15L262.445 517.383ZM260.172 527.438L262.477 530.707L262.494 530.694L262.512 530.682L260.172 527.438ZM256.82 529.102L255.528 525.316L255.169 525.439L254.84 525.626L256.82 529.102ZM254.805 530.25V534.25H255.864L256.785 533.725L254.805 530.25ZM245.219 530.25L241.219 530.288L241.257 534.25H245.219V530.25ZM245.172 525.352V521.352H241.133L241.172 525.39L245.172 525.352ZM256.445 519.422L252.984 521.426L253.015 521.48L253.048 521.534L256.445 519.422ZM254.875 518.062L253.22 521.704L253.235 521.711L253.25 521.718L254.875 518.062ZM247.445 517.594V513.594H243.445V517.594H247.445ZM247.445 540V544H251.445V540H247.445ZM241.211 540H237.211V544H241.211V540ZM257.594 540L254.091 541.932L255.232 544H257.594V540ZM250.938 527.93L250.909 523.93L244.19 523.978L247.435 529.861L250.938 527.93ZM257.5 527.883L260.972 525.896L259.81 523.866L257.471 523.883L257.5 527.883ZM264.273 539.719H268.273V538.655L267.745 537.732L264.273 539.719ZM264.273 540V544H268.273V540H264.273ZM241.211 516.695H252.297V508.695H241.211V516.695ZM252.297 516.695C253.688 516.695 254.84 516.845 255.787 517.099L257.854 509.37C256.113 508.905 254.25 508.695 252.297 508.695V516.695ZM255.84 517.112C256.785 517.351 257.426 517.675 257.866 518.005L262.666 511.605C261.23 510.528 259.575 509.805 257.801 509.356L255.84 517.112ZM257.926 518.049C258.356 518.359 258.643 518.709 258.846 519.128L266.045 515.638C265.248 513.995 264.082 512.625 262.606 511.561L257.926 518.049ZM258.857 519.15C259.04 519.522 259.195 520.077 259.195 520.922H267.195C267.195 519.079 266.851 517.275 266.034 515.616L258.857 519.15ZM259.195 520.922C259.195 522.006 259.006 522.653 258.821 523.024L265.976 526.601C266.854 524.847 267.195 522.901 267.195 520.922H259.195ZM258.821 523.024C258.575 523.515 258.255 523.888 257.832 524.193L262.512 530.682C263.995 529.612 265.159 528.235 265.976 526.601L258.821 523.024ZM257.867 524.168C257.271 524.589 256.505 524.982 255.528 525.316L258.113 532.887C259.698 532.346 261.167 531.63 262.477 530.707L257.867 524.168ZM254.84 525.626L252.824 526.775L256.785 533.725L258.801 532.577L254.84 525.626ZM254.805 526.25H245.219V534.25H254.805V526.25ZM249.219 530.212L249.172 525.313L241.172 525.39L241.219 530.288L249.219 530.212ZM245.172 529.352H252.367V521.352H245.172V529.352ZM252.367 529.352C253.767 529.352 255.223 529.14 256.577 528.524L253.267 521.241C253.246 521.251 252.998 521.352 252.367 521.352V529.352ZM256.577 528.524C257.913 527.917 259.095 526.956 259.907 525.591L253.031 521.503C253.082 521.417 253.146 521.342 253.21 521.287C253.27 521.235 253.3 521.226 253.267 521.241L256.577 528.524ZM259.907 525.591C260.674 524.301 260.984 522.891 260.984 521.508H252.984C252.984 521.605 252.974 521.638 252.978 521.623C252.979 521.616 252.984 521.6 252.993 521.577C253.003 521.554 253.015 521.529 253.031 521.503L259.907 525.591ZM260.984 521.508C260.984 520.095 260.666 518.636 259.842 517.31L253.048 521.534C253.027 521.499 253.01 521.466 252.998 521.437C252.985 521.408 252.979 521.387 252.977 521.378C252.972 521.359 252.984 521.396 252.984 521.508H260.984ZM259.907 517.418C259.09 516.006 257.876 515.019 256.5 514.407L253.25 521.718C253.281 521.731 253.245 521.72 253.177 521.661C253.106 521.599 253.036 521.517 252.984 521.426L259.907 517.418ZM256.53 514.421C255.17 513.803 253.702 513.594 252.297 513.594V521.594C252.954 521.594 253.205 521.697 253.22 521.704L256.53 514.421ZM252.297 513.594H247.445V521.594H252.297V513.594ZM243.445 517.594V540H251.445V517.594H243.445ZM247.445 536H241.211V544H247.445V536ZM245.211 540V512.695H237.211V540H245.211ZM261.096 538.068L254.44 525.998L247.435 529.861L254.091 541.932L261.096 538.068ZM250.966 531.93L257.529 531.883L257.471 523.883L250.909 523.93L250.966 531.93ZM254.028 529.87L260.802 541.706L267.745 537.732L260.972 525.896L254.028 529.87ZM260.273 539.719V540H268.273V539.719H260.273ZM264.273 536H257.594V544H264.273V536ZM274.857 527.695L271.272 525.92L270.655 527.167L270.944 528.528L274.857 527.695ZM282.287 512.695V508.695H279.804L278.702 510.92L282.287 512.695ZM289.037 512.695L292.542 514.621L295.797 508.695H289.037V512.695ZM278.982 531V535H281.348L282.488 532.926L278.982 531ZM275.56 531L271.648 531.832L272.322 535H275.56V531ZM270.24 512.695L273.826 510.924L272.726 508.695H270.24V512.695ZM277.716 527.836L281.602 528.786L281.948 527.371L281.303 526.065L277.716 527.836ZM276.943 531V535H280.083L280.828 531.95L276.943 531ZM273.544 531L270.038 532.926L271.178 535H273.544V531ZM263.49 512.695V508.695H256.729L259.984 514.621L263.49 512.695ZM279.287 527.18H283.287V523.18H279.287V527.18ZM279.287 540V544H283.287V540H279.287ZM273.076 540H269.076V544H273.076V540ZM273.076 527.18V523.18H269.076V527.18H273.076ZM278.441 529.471L285.871 514.471L278.702 510.92L271.272 525.92L278.441 529.471ZM282.287 516.695H289.037V508.695H282.287V516.695ZM285.531 510.77L275.476 529.074L282.488 532.926L292.542 514.621L285.531 510.77ZM278.982 527H275.56V535H278.982V527ZM279.472 530.168L278.769 526.863L270.944 528.528L271.648 531.832L279.472 530.168ZM266.653 514.466L274.13 529.607L281.303 526.065L273.826 510.924L266.653 514.466ZM273.831 526.886L273.057 530.05L280.828 531.95L281.602 528.786L273.831 526.886ZM276.943 527H273.544V535H276.943V527ZM277.05 529.074L266.996 510.77L259.984 514.621L270.038 532.926L277.05 529.074ZM263.49 516.695H270.24V508.695H263.49V516.695ZM275.287 527.18V540H283.287V527.18H275.287ZM279.287 536H273.076V544H279.287V536ZM277.076 540V527.18H269.076V540H277.076ZM273.076 531.18H279.287V523.18H273.076V531.18ZM324.149 525.516H328.149V521.516H324.149V525.516ZM324.149 536.625L327.109 539.316L328.149 538.171V536.625H324.149ZM321.993 538.289L324.067 541.709L324.075 541.704L324.083 541.699L321.993 538.289ZM318.289 539.766L317.254 535.902L318.289 539.766ZM303.594 536.953L300.746 539.762L300.756 539.772L300.766 539.782L303.594 536.953ZM300.969 519.938L304.726 521.31L304.73 521.299L300.969 519.938ZM307.391 513.188L308.829 516.92L308.84 516.916L308.85 516.912L307.391 513.188ZM318.758 513.492L317.011 517.09L317.031 517.1L317.052 517.11L318.758 513.492ZM324.125 521.531V525.531H328.603L328.1 521.082L324.125 521.531ZM318.125 521.531L314.173 522.145L314.698 525.531H318.125V521.531ZM317.282 519.211L313.881 521.316L313.91 521.364L313.941 521.411L317.282 519.211ZM315.524 517.711L313.857 521.347L313.871 521.354L313.885 521.36L315.524 517.711ZM307.977 519.281L311.107 521.771L311.121 521.754L311.134 521.737L307.977 519.281ZM306.735 530.789L302.872 531.827L302.879 531.854L302.886 531.88L306.735 530.789ZM308.047 533.414L304.957 535.954L304.972 535.972L304.986 535.988L308.047 533.414ZM310.203 534.984L308.66 538.675L308.672 538.68L308.684 538.684L310.203 534.984ZM316.344 535.102L317.775 538.837L317.809 538.824L317.843 538.81L316.344 535.102ZM317.914 534.305L320.314 537.505L321.914 536.305V534.305H317.914ZM317.914 529.875H321.914V525.875H317.914V529.875ZM312.336 529.875H308.336V533.875H312.336V529.875ZM312.336 525.516V521.516H308.336V525.516H312.336ZM320.149 525.516V536.625H328.149V525.516H320.149ZM321.189 533.934C321.084 534.05 320.724 534.375 319.902 534.879L324.083 541.699C325.198 541.016 326.277 540.231 327.109 539.316L321.189 533.934ZM319.918 534.869C319.39 535.189 318.54 535.557 317.254 535.902L319.325 543.629C321.07 543.162 322.688 542.545 324.067 541.709L319.918 534.869ZM317.254 535.902C316.173 536.192 314.713 536.375 312.805 536.375V544.375C315.178 544.375 317.374 544.152 319.325 543.629L317.254 535.902ZM312.805 536.375C311.325 536.375 310.076 536.15 309.013 535.756L306.237 543.259C308.3 544.022 310.504 544.375 312.805 544.375V536.375ZM309.013 535.756C307.966 535.369 307.12 534.823 306.422 534.125L300.766 539.782C302.318 541.334 304.16 542.491 306.237 543.259L309.013 535.756ZM306.442 534.144C305.75 533.443 305.173 532.548 304.742 531.389L297.243 534.174C298.031 536.296 299.188 538.182 300.746 539.762L306.442 534.144ZM304.742 531.389C304.328 530.275 304.078 528.885 304.078 527.156H296.078C296.078 529.646 296.438 532.007 297.243 534.174L304.742 531.389ZM304.078 527.156V525.539H296.078V527.156H304.078ZM304.078 525.539C304.078 523.799 304.324 522.411 304.726 521.31L297.212 518.565C296.427 520.714 296.078 523.061 296.078 525.539H304.078ZM304.73 521.299C305.154 520.128 305.719 519.232 306.387 518.534L300.613 512.997C299.095 514.581 297.972 516.466 297.208 518.576L304.73 521.299ZM306.387 518.534C307.068 517.825 307.867 517.291 308.829 516.92L305.952 509.455C303.914 510.241 302.12 511.425 300.613 512.997L306.387 518.534ZM308.85 516.912C309.847 516.521 311.017 516.297 312.407 516.297V508.297C310.14 508.297 307.966 508.666 305.932 509.463L308.85 516.912ZM312.407 516.297C314.633 516.297 316.094 516.645 317.011 517.09L320.506 509.894C318.141 508.745 315.368 508.297 312.407 508.297V516.297ZM317.052 517.11C318.095 517.602 318.724 518.198 319.129 518.853L325.934 514.647C324.62 512.521 322.734 510.945 320.465 509.874L317.052 517.11ZM319.129 518.853C319.646 519.69 320.007 520.707 320.151 521.981L328.1 521.082C327.838 518.761 327.136 516.591 325.934 514.647L319.129 518.853ZM324.125 517.531H318.125V525.531H324.125V517.531ZM322.078 520.918C321.866 519.554 321.415 518.215 320.622 517.011L313.941 521.411C313.992 521.488 314.103 521.696 314.173 522.145L322.078 520.918ZM320.683 517.106C319.819 515.711 318.59 514.703 317.162 514.062L313.885 521.36C313.92 521.376 313.939 521.387 313.946 521.391C313.953 521.395 313.95 521.394 313.941 521.386C313.932 521.379 313.92 521.367 313.908 521.353C313.895 521.339 313.886 521.326 313.881 521.316L320.683 517.106ZM317.19 514.075C315.735 513.407 314.13 513.195 312.594 513.195V521.195C313.465 521.195 313.813 521.327 313.857 521.347L317.19 514.075ZM312.594 513.195C311.145 513.195 309.711 513.454 308.358 514.05L311.58 521.372C311.789 521.28 312.105 521.195 312.594 521.195V513.195ZM308.358 514.05C306.942 514.673 305.755 515.622 304.819 516.825L311.134 521.737C311.292 521.534 311.433 521.437 311.58 521.372L308.358 514.05ZM304.846 516.791C303.897 517.985 303.269 519.363 302.876 520.807L310.594 522.912C310.762 522.293 310.963 521.953 311.107 521.771L304.846 516.791ZM302.876 520.807C302.478 522.266 302.313 523.846 302.313 525.492H310.313C310.313 524.357 310.429 523.515 310.594 522.912L302.876 520.807ZM302.313 525.492V527.156H310.313V525.492H302.313ZM302.313 527.156C302.313 528.793 302.479 530.365 302.872 531.827L310.598 529.751C310.428 529.119 310.313 528.27 310.313 527.156H302.313ZM302.886 531.88C303.305 533.356 303.968 534.751 304.957 535.954L311.137 530.874C310.97 530.671 310.758 530.316 310.583 529.698L302.886 531.88ZM304.986 535.988C305.989 537.182 307.236 538.079 308.66 538.675L311.747 531.294C311.453 531.171 311.261 531.021 311.109 530.84L304.986 535.988ZM308.684 538.684C310.123 539.276 311.654 539.523 313.203 539.523V531.523C312.503 531.523 312.034 531.412 311.723 531.284L308.684 538.684ZM313.203 539.523C314.749 539.523 316.367 539.376 317.775 538.837L314.913 531.366C314.915 531.366 314.789 531.411 314.476 531.454C314.17 531.495 313.753 531.523 313.203 531.523V539.523ZM317.843 538.81C318.641 538.488 319.567 538.065 320.314 537.505L315.514 531.105C315.611 531.032 315.624 531.038 315.477 531.113C315.345 531.18 315.14 531.274 314.845 531.393L317.843 538.81ZM321.914 534.305V529.875H313.914V534.305H321.914ZM317.914 525.875H312.336V533.875H317.914V525.875ZM316.336 529.875V525.516H308.336V529.875H316.336ZM312.336 529.516H324.149V521.516H312.336V529.516ZM338.74 519.047L342.493 520.432L342.619 520.09L342.681 519.73L338.74 519.047ZM331.006 540V544H333.793L334.758 541.385L331.006 540ZM324.724 540L321.009 538.517L318.821 544H324.724V540ZM335.623 512.695V508.695H332.913L331.908 511.212L335.623 512.695ZM339.842 512.695L343.783 513.379L344.595 508.695H339.842V512.695ZM346.099 540L342.352 541.399L343.323 544H346.099V540ZM338.271 519.023L334.331 519.709L334.394 520.075L334.524 520.422L338.271 519.023ZM337.17 512.695V508.695H332.413L333.229 513.381L337.17 512.695ZM341.435 512.695L345.149 511.21L344.143 508.695H341.435V512.695ZM352.357 540V544H358.265L356.071 538.514L352.357 540ZM345.842 529.852H349.842V525.852H345.842V529.852ZM345.842 534.375V538.375H349.842V534.375H345.842ZM330.49 534.375H326.49V538.375H330.49V534.375ZM330.49 529.852V525.852H326.49V529.852H330.49ZM334.987 517.662L327.253 538.615L334.758 541.385L342.493 520.432L334.987 517.662ZM331.006 536H324.724V544H331.006V536ZM328.439 541.483L339.338 514.178L331.908 511.212L321.009 538.517L328.439 541.483ZM335.623 516.695H339.842V508.695H335.623V516.695ZM335.9 512.012L334.799 518.363L342.681 519.73L343.783 513.379L335.9 512.012ZM349.847 538.601L342.019 517.625L334.524 520.422L342.352 541.399L349.847 538.601ZM342.212 518.337L341.11 512.009L333.229 513.381L334.331 519.709L342.212 518.337ZM337.17 516.695H341.435V508.695H337.17V516.695ZM337.721 514.181L348.643 541.486L356.071 538.514L345.149 511.21L337.721 514.181ZM352.357 536H346.099V544H352.357V536ZM341.842 529.852V534.375H349.842V529.852H341.842ZM345.842 530.375H330.49V538.375H345.842V530.375ZM334.49 534.375V529.852H326.49V534.375H334.49ZM330.49 533.852H345.842V525.852H330.49V533.852ZM356.472 512.695V508.695H350.648L352.738 514.131L356.472 512.695ZM361.698 512.695L365.436 511.269L364.454 508.695H361.698V512.695ZM369.058 531.984L365.321 533.41L369.064 543.221L372.797 533.406L369.058 531.984ZM376.394 512.695V508.695H373.635L372.655 511.273L376.394 512.695ZM381.62 512.695L385.355 514.128L387.439 508.695H381.62V512.695ZM371.144 540V544H373.893L374.878 541.433L371.144 540ZM366.972 540L363.238 541.436L364.224 544H366.972V540ZM353.566 512.695V508.695H349.566V512.695H353.566ZM358.816 512.695L362.811 512.509L362.633 508.695H358.816V512.695ZM359.777 533.297H363.777V533.204L363.772 533.111L359.777 533.297ZM359.777 540V544H363.777V540H359.777ZM353.566 540H349.566V544H353.566V540ZM379.323 512.695V508.695H375.506L375.328 512.509L379.323 512.695ZM384.597 512.695H388.597V508.695H384.597V512.695ZM384.597 540V544H388.597V540H384.597ZM378.362 540H374.362V544H378.362V540ZM378.362 533.297L374.367 533.111L374.362 533.204V533.297H378.362ZM356.472 516.695H361.698V508.695H356.472V516.695ZM357.961 514.121L365.321 533.41L372.795 530.559L365.436 511.269L357.961 514.121ZM372.797 533.406L380.132 514.117L372.655 511.273L365.319 530.562L372.797 533.406ZM376.394 516.695H381.62V508.695H376.394V516.695ZM377.886 511.262L367.409 538.567L374.878 541.433L385.355 514.128L377.886 511.262ZM371.144 536H366.972V544H371.144V536ZM370.705 538.564L360.205 511.26L352.738 514.131L363.238 541.436L370.705 538.564ZM353.566 516.695H358.816V508.695H353.566V516.695ZM354.82 512.882L355.781 533.483L363.772 533.111L362.811 512.509L354.82 512.882ZM355.777 533.297V540H363.777V533.297H355.777ZM359.777 536H353.566V544H359.777V536ZM357.566 540V512.695H349.566V540H357.566ZM379.323 516.695H384.597V508.695H379.323V516.695ZM380.597 512.695V540H388.597V512.695H380.597ZM384.597 536H378.362V544H384.597V536ZM382.362 540V533.297H374.362V540H382.362ZM382.358 533.483L383.319 512.882L375.328 512.509L374.367 533.111L382.358 533.483ZM408.047 535.125H412.047V531.125H408.047V535.125ZM408.047 540V544H412.047V540H408.047ZM392.391 540H388.391V544H392.391V540ZM392.391 535.125V531.125H388.391V535.125H392.391ZM394.477 512.695H398.477V508.695H394.477V512.695ZM394.477 540V544H398.477V540H394.477ZM388.266 540H384.266V544H388.266V540ZM388.266 512.695V508.695H384.266V512.695H388.266ZM406.032 523.453H410.032V519.453H406.032V523.453ZM406.032 528.328V532.328H410.032V528.328H406.032ZM392.391 528.328H388.391V532.328H392.391V528.328ZM392.391 523.453V519.453H388.391V523.453H392.391ZM408.047 512.695H412.047V508.695H408.047V512.695ZM408.047 517.594V521.594H412.047V517.594H408.047ZM392.391 517.594H388.391V521.594H392.391V517.594ZM392.391 512.695V508.695H388.391V512.695H392.391ZM404.047 535.125V540H412.047V535.125H404.047ZM408.047 536H392.391V544H408.047V536ZM396.391 540V535.125H388.391V540H396.391ZM392.391 539.125H408.047V531.125H392.391V539.125ZM390.477 512.695V540H398.477V512.695H390.477ZM394.477 536H388.266V544H394.477V536ZM392.266 540V512.695H384.266V540H392.266ZM388.266 516.695H394.477V508.695H388.266V516.695ZM402.032 523.453V528.328H410.032V523.453H402.032ZM406.032 524.328H392.391V532.328H406.032V524.328ZM396.391 528.328V523.453H388.391V528.328H396.391ZM392.391 527.453H406.032V519.453H392.391V527.453ZM404.047 512.695V517.594H412.047V512.695H404.047ZM408.047 513.594H392.391V521.594H408.047V513.594ZM396.391 517.594V512.695H388.391V517.594H396.391ZM392.391 516.695H408.047V508.695H392.391V516.695ZM425.053 531.469L421.392 533.08L421.418 533.14L421.447 533.2L425.053 531.469ZM422.498 529.523L421.013 533.237L421.027 533.243L421.041 533.248L422.498 529.523ZM419.85 528.727L418.905 532.613L418.919 532.617L418.934 532.62L419.85 528.727ZM412.326 525.68L409.842 528.815L409.856 528.826L409.87 528.837L412.326 525.68ZM410.451 523.359L406.801 524.996L406.818 525.034L406.836 525.072L410.451 523.359ZM410.592 517.031L407.061 515.152L407.055 515.162L407.05 515.173L410.592 517.031ZM412.748 514.523L410.348 511.323L410.335 511.333L410.322 511.343L412.748 514.523ZM416.053 512.906L417.189 516.741L417.204 516.737L417.219 516.732L416.053 512.906ZM426.037 513.375L424.474 517.057L424.486 517.062L426.037 513.375ZM429.928 516.328L426.695 518.683L426.702 518.693L426.709 518.702L429.928 516.328ZM431.311 520.781V524.781H435.311V520.781H431.311ZM425.1 520.781H421.1V524.781H425.1V520.781ZM424.537 518.836L421.115 520.907L421.147 520.96L421.181 521.013L424.537 518.836ZM417.717 517.336L419.366 520.98L419.385 520.972L419.404 520.963L417.717 517.336ZM416.24 518.508L412.929 516.264L412.92 516.277L412.912 516.289L416.24 518.508ZM416.053 521.203L412.506 523.053L412.555 523.147L412.609 523.238L416.053 521.203ZM416.99 522.164L414.688 525.435L414.757 525.483L414.827 525.529L416.99 522.164ZM418.701 522.984L417.288 526.726L417.324 526.74L417.361 526.753L418.701 522.984ZM421.256 523.758L420.229 527.624L420.3 527.643L420.373 527.659L421.256 523.758ZM425.615 525.094L424.09 528.792L424.118 528.803L424.146 528.814L425.615 525.094ZM428.756 526.898L426.167 529.948L426.181 529.96L426.195 529.971L428.756 526.898ZM430.537 535.898L434.079 537.757L434.086 537.745L434.092 537.733L430.537 535.898ZM428.357 538.336L430.651 541.613L430.662 541.605L428.357 538.336ZM424.982 539.859L426.007 543.726L426.023 543.722L426.039 543.717L424.982 539.859ZM412.607 538.266L410.421 541.615L410.437 541.626L410.454 541.636L412.607 538.266ZM408.904 531.445V527.445H404.904V531.445H408.904ZM415.139 531.445H419.139V527.445H415.139V531.445ZM415.514 533.461L411.858 535.085L411.877 535.127L411.897 535.169L415.514 533.461ZM416.639 534.844L414.255 538.056L414.313 538.099L414.373 538.14L416.639 534.844ZM418.467 535.617L417.537 539.508L417.577 539.517L417.617 539.526L418.467 535.617ZM424.889 534.258L421.509 532.118L421.484 532.158L421.459 532.2L424.889 534.258ZM429.334 532.781C429.334 531.769 429.135 530.729 428.659 529.738L421.447 533.2C421.346 532.989 421.334 532.825 421.334 532.781H429.334ZM428.714 529.858C428.223 528.741 427.456 527.883 426.624 527.244L421.747 533.585C421.728 533.57 421.539 533.415 421.392 533.08L428.714 529.858ZM426.624 527.244C425.809 526.616 424.867 526.155 423.956 525.798L421.041 533.248C421.288 533.345 421.468 533.429 421.592 533.495C421.718 533.561 421.76 533.595 421.747 533.585L426.624 527.244ZM423.984 525.81C423.034 525.43 421.946 525.11 420.766 524.833L418.934 532.62C419.879 532.843 420.556 533.055 421.013 533.237L423.984 525.81ZM420.794 524.84C419.247 524.464 417.961 524.067 416.912 523.661L414.022 531.12C415.473 531.683 417.108 532.177 418.905 532.613L420.794 524.84ZM416.912 523.661C415.937 523.283 415.252 522.888 414.782 522.522L409.87 528.837C411.088 529.784 412.497 530.529 414.022 531.12L416.912 523.661ZM414.811 522.545C414.428 522.242 414.207 521.943 414.066 521.647L406.836 525.072C407.54 526.557 408.568 527.805 409.842 528.815L414.811 522.545ZM414.101 521.723C413.969 521.428 413.842 520.951 413.842 520.195H405.842C405.842 521.846 406.121 523.478 406.801 524.996L414.101 521.723ZM413.842 520.195C413.842 519.637 413.957 519.227 414.134 518.889L407.05 515.173C406.227 516.742 405.842 518.441 405.842 520.195H413.842ZM414.123 518.911C414.353 518.479 414.683 518.078 415.174 517.704L410.322 511.343C408.969 512.375 407.862 513.646 407.061 515.152L414.123 518.911ZM415.148 517.723C415.661 517.339 416.322 516.998 417.189 516.741L414.916 509.071C413.252 509.564 411.711 510.302 410.348 511.323L415.148 517.723ZM417.219 516.732C418.076 516.471 419.077 516.32 420.248 516.32V508.32C418.388 508.32 416.592 508.56 414.886 509.08L417.219 516.732ZM420.248 516.32C422.031 516.32 423.41 516.605 424.474 517.057L427.6 509.693C425.352 508.739 422.871 508.32 420.248 508.32V516.32ZM424.486 517.062C425.595 517.528 426.266 518.095 426.695 518.683L433.161 513.973C431.746 512.03 429.823 510.628 427.588 509.688L424.486 517.062ZM426.709 518.702C427.069 519.191 427.311 519.821 427.311 520.781H435.311C435.311 518.304 434.63 515.965 433.147 513.954L426.709 518.702ZM431.311 516.781H425.1V524.781H431.311V516.781ZM429.1 520.781C429.1 519.325 428.707 517.914 427.893 516.659L421.181 521.013C421.16 520.979 421.134 520.928 421.116 520.867C421.099 520.807 421.1 520.773 421.1 520.781H429.1ZM427.959 516.765C427.15 515.428 425.994 514.471 424.709 513.829L421.131 520.984C421.215 521.026 421.233 521.047 421.214 521.03C421.205 521.022 421.189 521.007 421.17 520.984C421.151 520.962 421.132 520.936 421.115 520.907L427.959 516.765ZM424.709 513.829C423.285 513.117 421.74 512.867 420.248 512.867V520.867C420.881 520.867 421.117 520.977 421.131 520.984L424.709 513.829ZM420.248 512.867C418.853 512.867 417.388 513.077 416.03 513.709L419.404 520.963C419.389 520.969 419.612 520.867 420.248 520.867V512.867ZM416.068 513.692C414.894 514.223 413.757 515.041 412.929 516.264L419.552 520.751C419.472 520.87 419.391 520.946 419.342 520.985C419.297 521.021 419.294 521.013 419.366 520.98L416.068 513.692ZM412.912 516.289C412.189 517.373 411.772 518.638 411.772 520.008H419.772C419.772 520.141 419.751 520.286 419.707 520.427C419.663 520.567 419.608 520.668 419.568 520.727L412.912 516.289ZM411.772 520.008C411.772 521.037 411.998 522.078 412.506 523.053L419.599 519.353C419.733 519.609 419.772 519.853 419.772 520.008H411.772ZM412.609 523.238C413.172 524.191 413.933 524.903 414.688 525.435L419.292 518.893C419.204 518.831 419.34 518.903 419.497 519.168L412.609 523.238ZM414.827 525.529C415.579 526.012 416.427 526.401 417.288 526.726L420.115 519.242C419.569 519.036 419.276 518.878 419.153 518.799L414.827 525.529ZM417.361 526.753C418.198 527.051 419.16 527.34 420.229 527.624L422.283 519.892C421.351 519.644 420.611 519.418 420.041 519.216L417.361 526.753ZM420.373 527.659C421.862 527.996 423.093 528.38 424.09 528.792L427.141 521.396C425.638 520.776 423.962 520.269 422.139 519.857L420.373 527.659ZM424.146 528.814C425.102 529.192 425.745 529.589 426.167 529.948L431.345 523.849C430.111 522.801 428.659 521.996 427.085 521.374L424.146 528.814ZM426.195 529.971C426.605 530.313 426.851 530.654 427.007 531.001L434.302 527.718C433.614 526.19 432.594 524.89 431.317 523.826L426.195 529.971ZM427.007 531.001C427.155 531.329 427.287 531.837 427.287 532.617H435.287C435.287 530.929 434.998 529.264 434.302 527.718L427.007 531.001ZM427.287 532.617C427.287 533.274 427.157 533.726 426.983 534.064L434.092 537.733C434.918 536.133 435.287 534.398 435.287 532.617H427.287ZM426.995 534.04C426.814 534.385 426.532 534.729 426.053 535.067L430.662 541.605C432.09 540.599 433.26 539.318 434.079 537.757L426.995 534.04ZM426.064 535.059C425.566 535.407 424.877 535.741 423.926 536.001L426.039 543.717C427.713 543.259 429.274 542.577 430.651 541.613L426.064 535.059ZM423.958 535.993C423.054 536.232 421.953 536.375 420.623 536.375V544.375C422.512 544.375 424.317 544.174 426.007 543.726L423.958 535.993ZM420.623 536.375C419.508 536.375 418.416 536.242 417.341 535.976L415.421 543.742C417.127 544.164 418.863 544.375 420.623 544.375V536.375ZM417.341 535.976C416.342 535.729 415.493 535.362 414.761 534.895L410.454 541.636C411.972 542.606 413.638 543.302 415.421 543.742L417.341 535.976ZM414.794 534.916C414.165 534.505 413.698 534.015 413.346 533.426L406.478 537.528C407.47 539.188 408.8 540.557 410.421 541.615L414.794 534.916ZM413.346 533.426C413.11 533.031 412.904 532.425 412.904 531.445H404.904C404.904 533.59 405.37 535.673 406.478 537.528L413.346 533.426ZM408.904 535.445H415.139V527.445H408.904V535.445ZM411.139 531.445C411.139 532.641 411.329 533.894 411.858 535.085L419.169 531.836C419.199 531.903 419.139 531.812 419.139 531.445H411.139ZM411.897 535.169C412.434 536.307 413.225 537.292 414.255 538.056L419.022 531.631C419.043 531.647 419.071 531.672 419.097 531.704C419.123 531.736 419.132 531.756 419.131 531.753L411.897 535.169ZM414.373 538.14C415.355 538.815 416.441 539.245 417.537 539.508L419.397 531.727C419.055 531.645 418.922 531.56 418.905 531.548L414.373 538.14ZM417.617 539.526C418.671 539.755 419.775 539.852 420.904 539.852V531.852C420.221 531.852 419.701 531.792 419.317 531.708L417.617 539.526ZM420.904 539.852C422.288 539.852 423.771 539.666 425.131 539.051L421.834 531.762C421.871 531.745 421.828 531.77 421.665 531.799C421.502 531.827 421.255 531.852 420.904 531.852V539.852ZM425.131 539.051C426.296 538.524 427.504 537.673 428.319 536.316L421.459 532.2C421.711 531.78 421.981 531.695 421.834 531.762L425.131 539.051ZM428.268 536.398C428.938 535.34 429.334 534.113 429.334 532.781H421.334C421.334 532.649 421.354 532.512 421.393 532.382C421.432 532.255 421.479 532.166 421.509 532.118L428.268 536.398Z" fill="black" mask="url(#path-7-outside-1_106_172)"/>
</svg>
